<svg width="574" height="147" viewBox="0 0 574 147" fill="none" xmlns="http://www.w3.org/2000/svg">
<path d="M175.49 62.768C170.924 62.768 166.786 61.7867 163.074 59.824C159.404 57.8187 156.503 55.0667 154.37 51.568C152.279 48.0267 151.234 44.0373 151.234 39.6C151.234 35.1627 152.279 31.1947 154.37 27.696C156.503 24.1547 159.404 21.4027 163.074 19.44C166.786 17.4347 170.946 16.432 175.554 16.432C179.436 16.432 182.935 17.1147 186.05 18.48C189.207 19.8453 191.852 21.808 193.986 24.368L187.33 30.512C184.3 27.0133 180.546 25.264 176.066 25.264C173.292 25.264 170.818 25.8827 168.642 27.12C166.466 28.3147 164.759 30 163.522 32.176C162.327 34.352 161.73 36.8267 161.73 39.6C161.73 42.3733 162.327 44.848 163.522 47.024C164.759 49.2 166.466 50.9067 168.642 52.144C170.818 53.3387 173.292 53.936 176.066 53.936C180.546 53.936 184.3 52.1653 187.33 48.624L193.986 54.768C191.852 57.3707 189.207 59.3547 186.05 60.72C182.892 62.0853 179.372 62.768 175.49 62.768ZM215.48 62.512C211.853 62.512 208.589 61.7653 205.688 60.272C202.829 58.736 200.589 56.624 198.968 53.936C197.346 51.248 196.536 48.1973 196.536 44.784C196.536 41.3707 197.346 38.32 198.968 35.632C200.589 32.944 202.829 30.8533 205.688 29.36C208.589 27.824 211.853 27.056 215.48 27.056C219.106 27.056 222.349 27.824 225.208 29.36C228.066 30.8533 230.306 32.944 231.928 35.632C233.549 38.32 234.36 41.3707 234.36 44.784C234.36 48.1973 233.549 51.248 231.928 53.936C230.306 56.624 228.066 58.736 225.208 60.272C222.349 61.7653 219.106 62.512 215.48 62.512ZM215.48 54.32C218.04 54.32 220.13 53.4667 221.752 51.76C223.416 50.0107 224.248 47.6853 224.248 44.784C224.248 41.8827 223.416 39.5787 221.752 37.872C220.13 36.1227 218.04 35.248 215.48 35.248C212.92 35.248 210.808 36.1227 209.144 37.872C207.48 39.5787 206.648 41.8827 206.648 44.784C206.648 47.6853 207.48 50.0107 209.144 51.76C210.808 53.4667 212.92 54.32 215.48 54.32ZM275.721 27.568V62H266.249V57.904C264.927 59.3973 263.348 60.5493 261.513 61.36C259.679 62.128 257.695 62.512 255.561 62.512C251.039 62.512 247.455 61.2107 244.809 58.608C242.164 56.0053 240.841 52.144 240.841 47.024V27.568H250.825V45.552C250.825 51.0987 253.151 53.872 257.801 53.872C260.191 53.872 262.111 53.104 263.561 51.568C265.012 49.9893 265.737 47.664 265.737 44.592V27.568H275.721ZM305.899 27.056C310.165 27.056 313.6 28.336 316.203 30.896C318.848 33.456 320.171 37.2533 320.171 42.288V62H310.187V43.824C310.187 41.0933 309.589 39.0667 308.395 37.744C307.2 36.3787 305.472 35.696 303.211 35.696C300.693 35.696 298.688 36.4853 297.195 38.064C295.701 39.6 294.955 41.904 294.955 44.976V62H284.971V27.568H294.507V31.6C295.829 30.1493 297.472 29.04 299.435 28.272C301.397 27.4613 303.552 27.056 305.899 27.056ZM351.429 60.336C350.447 61.0613 349.231 61.616 347.781 62C346.373 62.3413 344.879 62.512 343.301 62.512C339.205 62.512 336.026 61.4667 333.765 59.376C331.546 57.2853 330.437 54.2133 330.437 50.16V36.016H325.125V28.336H330.437V19.952H340.421V28.336H348.997V36.016H340.421V50.032C340.421 51.4827 340.783 52.6133 341.509 53.424C342.277 54.192 343.343 54.576 344.709 54.576C346.287 54.576 347.631 54.1493 348.741 53.296L351.429 60.336ZM357.737 17.2H378.089C382.953 17.2 387.241 18.1387 390.953 20.016C394.708 21.8507 397.609 24.4533 399.657 27.824C401.748 31.1947 402.793 35.12 402.793 39.6C402.793 44.08 401.748 48.0053 399.657 51.376C397.609 54.7467 394.708 57.3707 390.953 59.248C387.241 61.0827 382.953 62 378.089 62H357.737V17.2ZM377.577 53.488C382.057 53.488 385.62 52.2507 388.265 49.776C390.953 47.2587 392.297 43.8667 392.297 39.6C392.297 35.3333 390.953 31.9627 388.265 29.488C385.62 26.9707 382.057 25.712 377.577 25.712H368.105V53.488H377.577ZM443.636 44.912C443.636 45.04 443.572 45.936 443.444 47.6H417.396C417.866 49.7333 418.975 51.4187 420.724 52.656C422.474 53.8933 424.65 54.512 427.252 54.512C429.044 54.512 430.623 54.256 431.988 53.744C433.396 53.1893 434.698 52.336 435.892 51.184L441.204 56.944C437.962 60.656 433.226 62.512 426.996 62.512C423.114 62.512 419.679 61.7653 416.692 60.272C413.706 58.736 411.402 56.624 409.78 53.936C408.159 51.248 407.348 48.1973 407.348 44.784C407.348 41.4133 408.138 38.384 409.716 35.696C411.338 32.9653 413.535 30.8533 416.308 29.36C419.124 27.824 422.26 27.056 425.716 27.056C429.087 27.056 432.138 27.7813 434.868 29.232C437.599 30.6827 439.732 32.7733 441.268 35.504C442.847 38.192 443.636 41.328 443.636 44.912ZM425.78 34.608C423.519 34.608 421.62 35.248 420.084 36.528C418.548 37.808 417.61 39.5573 417.268 41.776H434.228C433.887 39.6 432.948 37.872 431.412 36.592C429.876 35.2693 427.999 34.608 425.78 34.608ZM450.283 14.512H460.267V62H450.283V14.512ZM494.241 60.336C493.26 61.0613 492.044 61.616 490.593 62C489.185 62.3413 487.692 62.512 486.113 62.512C482.017 62.512 478.839 61.4667 476.577 59.376C474.359 57.2853 473.249 54.2133 473.249 50.16V36.016H467.937V28.336H473.249V19.952H483.233V28.336H491.809V36.016H483.233V50.032C483.233 51.4827 483.596 52.6133 484.321 53.424C485.089 54.192 486.156 54.576 487.521 54.576C489.1 54.576 490.444 54.1493 491.553 53.296L494.241 60.336Z" fill="white"/>
<g clip-path="url(#clip0)">
<path d="M173.259 146.836H55.9353C52.7152 146.836 49.725 145.325 48.0342 142.843C46.3429 140.362 46.192 137.263 47.6363 134.657L106.298 28.7333C107.872 25.8899 111.084 24.0946 114.597 24.0946C118.11 24.0946 121.322 25.8899 122.896 28.7333L181.558 134.657C183.002 137.263 182.851 140.361 181.16 142.843C179.469 145.325 176.479 146.836 173.259 146.836ZM70.9794 130.018H158.215L114.597 51.2594L70.9794 130.018Z" fill="white"/>
</g>
<path d="M218.141 113.935H197.341L193.373 123.535H182.749L202.717 78.7349H212.957L232.989 123.535H222.109L218.141 113.935ZM214.877 106.063L207.773 88.9109L200.669 106.063H214.877ZM257.285 88.5909C260.485 88.5909 263.386 89.3375 265.989 90.8309C268.634 92.2815 270.704 94.3509 272.197 97.0389C273.69 99.6842 274.437 102.778 274.437 106.319C274.437 109.86 273.69 112.975 272.197 115.663C270.704 118.308 268.634 120.378 265.989 121.871C263.386 123.322 260.485 124.047 257.285 124.047C252.89 124.047 249.434 122.66 246.917 119.887V135.951H236.933V89.1029H246.469V93.0709C248.944 90.0842 252.549 88.5909 257.285 88.5909ZM255.557 115.855C258.117 115.855 260.208 115.002 261.829 113.295C263.493 111.546 264.325 109.22 264.325 106.319C264.325 103.418 263.493 101.114 261.829 99.4069C260.208 97.6575 258.117 96.7829 255.557 96.7829C252.997 96.7829 250.885 97.6575 249.221 99.4069C247.6 101.114 246.789 103.418 246.789 106.319C246.789 109.22 247.6 111.546 249.221 113.295C250.885 115.002 252.997 115.855 255.557 115.855ZM301.472 88.5909C304.672 88.5909 307.574 89.3375 310.176 90.8309C312.822 92.2815 314.891 94.3509 316.384 97.0389C317.878 99.6842 318.624 102.778 318.624 106.319C318.624 109.86 317.878 112.975 316.384 115.663C314.891 118.308 312.822 120.378 310.176 121.871C307.574 123.322 304.672 124.047 301.472 124.047C297.078 124.047 293.622 122.66 291.104 119.887V135.951H281.12V89.1029H290.656V93.0709C293.131 90.0842 296.736 88.5909 301.472 88.5909ZM299.744 115.855C302.304 115.855 304.395 115.002 306.016 113.295C307.68 111.546 308.512 109.22 308.512 106.319C308.512 103.418 307.68 101.114 306.016 99.4069C304.395 97.6575 302.304 96.7829 299.744 96.7829C297.184 96.7829 295.072 97.6575 293.408 99.4069C291.787 101.114 290.976 103.418 290.976 106.319C290.976 109.22 291.787 111.546 293.408 113.295C295.072 115.002 297.184 115.855 299.744 115.855Z" fill="white"/>
<defs>
<clipPath id="clip0">
<rect x="46.6501" y="23.9302" width="135.894" height="123.07" fill="white"/>
</clipPath>
</defs>
</svg>
